<svg
  width="16"
  height="30"
  viewBox="0 0 16 30"
  fill="none"
  xmlns="http://www.w3.org/2000/svg"
>
  <g clipPath="url(#clip0_5583_405)">
    <path
      d="M12.4768 6.34854L6.2039 2.55509C5.61183 2.19292 4.93872 2.0015 4.25307 2.00031C2.20933 2.00031 0.33463 3.71225 0.33463 6.10502V20.3073L12.4768 12.9669C14.9081 11.4947 14.9081 7.81996 12.4768 6.34854ZM3.84825 13.448V5.86793L10.1162 9.65667L3.84825 13.448Z"
      fill="#714b67"
    />
    <path
      d="M15.8488 27.9844C15.8488 28.0273 3.99069 27.966 3.99069 27.966L2.94324 27.8425C1.2466 27.644 -0.0558684 26.1233 0.00184602 24.3346C0.00184602 24.2917 0.00552992 24.2519 0.00798585 24.2103C0.0545855 23.4365 0.325954 22.6961 0.785698 22.0885C0.972404 21.8461 1.20079 21.6425 1.45903 21.4882L10.478 16.0725C12.3413 14.9535 13.893 14.562 14.6998 12.5341C14.9973 11.7757 15.1258 10.9562 15.0756 10.1379L15.0444 9.58655L15.965 14.9204C16.0829 15.8264 15.9012 16.7537 15.421 17.5169C15.1325 17.9785 14.7474 18.3653 14.295 18.6479L3.82942 23.8943C3.81896 23.9006 3.80885 23.9074 3.79913 23.9149C3.5126 24.1293 3.68943 24.6069 4.04022 24.5867L12.7514 24.6403C14.4431 24.5417 15.8524 26.2112 15.8488 27.9844Z"
      fill="#714b67"
    />
  </g>
  <defs>
    <clipPath id="clip0_5583_405">
      <rect
        width="15.9998"
        height="29.9994"
        fill="white"
        transform="translate(0 0.000305176)"
      />
    </clipPath>
  </defs>
</svg>
